<?xml version="1.0" encoding="UTF-8"?>
<svg xmlns="http://www.w3.org/2000/svg" xmlns:xlink="http://www.w3.org/1999/xlink" width="36px" height="px" viewBox="0 0 36 32" version="1.1">
<g id="surface1">
<path style=" stroke:none;fill-rule:nonzero;fill:rgb(0%,0%,0%);fill-opacity:1;" d="M 29.382812 14.457031 C 29.382812 14.457031 29.855469 16.78125 29.960938 17.269531 L 27.875 17.269531 C 28.082031 16.710938 28.875 14.550781 28.875 14.550781 C 28.863281 14.570312 29.082031 13.980469 29.207031 13.617188 Z M 36 5 L 36 27 C 36 28.65625 34.65625 30 33 30 L 3 30 C 1.34375 30 0 28.65625 0 27 L 0 5 C 0 3.34375 1.34375 2 3 2 L 33 2 C 34.65625 2 36 3.34375 36 5 Z M 9.53125 20.699219 L 13.480469 11 L 10.824219 11 L 8.367188 17.625 L 8.101562 16.28125 L 7.226562 11.820312 C 7.082031 11.199219 6.636719 11.023438 6.085938 11 L 2.042969 11 L 2 11.195312 C 2.988281 11.445312 3.867188 11.804688 4.636719 12.261719 L 6.875 20.699219 Z M 15.429688 20.710938 L 17.007812 11 L 14.492188 11 L 12.925781 20.710938 Z M 24.175781 17.539062 C 24.1875 16.429688 23.511719 15.585938 22.070312 14.894531 C 21.1875 14.449219 20.648438 14.148438 20.648438 13.695312 C 20.664062 13.28125 21.105469 12.855469 22.09375 12.855469 C 22.914062 12.835938 23.511719 13.03125 23.960938 13.226562 L 24.1875 13.332031 L 24.53125 11.230469 C 24.039062 11.039062 23.25 10.820312 22.28125 10.820312 C 19.800781 10.820312 18.054688 12.144531 18.042969 14.03125 C 18.023438 15.425781 19.292969 16.199219 20.242188 16.667969 C 21.210938 17.144531 21.542969 17.457031 21.542969 17.875 C 21.53125 18.523438 20.757812 18.824219 20.039062 18.824219 C 19.039062 18.824219 18.5 18.667969 17.679688 18.304688 L 17.351562 18.148438 L 17 20.332031 C 17.585938 20.601562 18.675781 20.835938 19.800781 20.851562 C 22.4375 20.855469 24.15625 19.550781 24.175781 17.539062 Z M 33 20.710938 L 30.976562 11 L 29.03125 11 C 28.429688 11 27.976562 11.175781 27.71875 11.804688 L 23.988281 20.710938 L 26.625 20.710938 C 26.625 20.710938 27.054688 19.511719 27.148438 19.257812 L 30.375 19.257812 C 30.449219 19.601562 30.675781 20.710938 30.675781 20.710938 Z M 33 20.710938 "/>
</g>
</svg>
