<?xml version="1.0" encoding="UTF-8"?>
<svg xmlns="http://www.w3.org/2000/svg" xmlns:xlink="http://www.w3.org/1999/xlink" width="16px" height="16px" viewBox="0 0 16 16" version="1.1">
<g id="surface1">
<path style=" stroke:none;fill-rule:nonzero;fill:rgb(0%,0%,0%);fill-opacity:1;" d="M 15.804688 14.863281 L 11.824219 10.882812 C 14.078125 8.128906 13.773438 4.089844 11.136719 1.707031 C 8.496094 -0.683594 4.449219 -0.582031 1.933594 1.933594 C -0.582031 4.449219 -0.683594 8.496094 1.707031 11.136719 C 4.089844 13.773438 8.128906 14.078125 10.882812 11.824219 L 14.863281 15.804688 C 15.121094 16.058594 15.539062 16.054688 15.796875 15.796875 C 16.054688 15.539062 16.058594 15.121094 15.804688 14.863281 Z M 6.667969 12 C 3.722656 12 1.332031 9.613281 1.332031 6.667969 C 1.332031 3.722656 3.722656 1.332031 6.667969 1.332031 C 9.613281 1.332031 12 3.722656 12 6.667969 C 11.996094 9.613281 9.613281 11.996094 6.667969 12 Z M 6.667969 12 "/>
</g>
</svg>
