<?xml version="1.0" encoding="UTF-8"?>
<svg xmlns="http://www.w3.org/2000/svg" xmlns:xlink="http://www.w3.org/1999/xlink" width="36px" height="36px" viewBox="0 0 36 36" version="1.1">
<g id="surface1">
<path style=" stroke:none;fill-rule:nonzero;fill:rgb(0%,0%,0%);fill-opacity:1;" d="M 3.375 4.5 C 1.511719 4.5 0 6.011719 0 7.875 C 0 8.9375 0.5 9.933594 1.351562 10.574219 L 16.648438 22.050781 C 17.453125 22.648438 18.546875 22.648438 19.351562 22.050781 L 34.648438 10.574219 C 35.5 9.933594 36 8.9375 36 7.875 C 36 6.011719 34.488281 4.5 32.625 4.5 Z M 0 12.375 L 0 27 C 0 29.480469 2.019531 31.5 4.5 31.5 L 31.5 31.5 C 33.980469 31.5 36 29.480469 36 27 L 36 12.375 L 20.699219 23.851562 C 19.097656 25.050781 16.902344 25.050781 15.300781 23.851562 Z M 0 12.375 "/>
</g>
</svg>
