<?xml version="1.0" encoding="UTF-8"?>
<svg xmlns="http://www.w3.org/2000/svg" xmlns:xlink="http://www.w3.org/1999/xlink" width="36px" height="36px" viewBox="0 0 36 36" version="1.1">
<g id="surface1">
<path style=" stroke:none;fill-rule:nonzero;fill:rgb(0%,0%,0%);fill-opacity:1;" d="M 13.050781 13.78125 C 13.4375 13.4375 13.546875 13.421875 15.976562 13.421875 C 18.160156 13.421875 18.234375 13.429688 18.554688 13.570312 C 19.019531 13.773438 19.222656 14.0625 19.222656 14.527344 C 19.222656 14.941406 19.027344 15.230469 18.609375 15.46875 C 18.386719 15.59375 18.25 15.601562 16.113281 15.617188 C 14.792969 15.625 13.742188 15.601562 13.582031 15.558594 C 12.753906 15.355469 12.449219 14.316406 13.050781 13.78125 Z M 17.984375 20.425781 C 13.652344 20.425781 13.5 20.441406 13.144531 20.714844 C 12.863281 20.933594 12.6875 21.375 12.738281 21.691406 C 12.792969 22.023438 13.121094 22.402344 13.476562 22.535156 C 13.652344 22.605469 14.609375 22.65625 18 22.621094 L 21.847656 22.578125 L 22.589844 22.472656 C 23.3125 22.113281 23.433594 21.25 22.835938 20.757812 C 22.410156 20.425781 22.4375 20.425781 17.984375 20.425781 Z M 35.9375 29.574219 C 35.65625 31.570312 34.085938 33.117188 31.828125 33.617188 C 31.25 33.742188 31.050781 33.75 17.9375 33.742188 C 5.253906 33.742188 4.605469 33.734375 4.113281 33.617188 C 3.4375 33.460938 2.859375 33.230469 2.324219 32.914062 C 1.871094 32.644531 1.207031 32.082031 0.957031 31.761719 C 0.652344 31.367188 0.296875 30.683594 0.152344 30.214844 C 0.0078125 29.742188 0 29.550781 0 18.019531 C 0 6.554688 0 6.308594 0.144531 5.808594 C 0.652344 4.070312 2.226562 2.742188 4.257812 2.347656 C 4.84375 2.234375 30.945312 2.214844 31.582031 2.328125 C 33.285156 2.628906 34.625 3.53125 35.40625 4.886719 C 36.023438 5.960938 35.96875 4.78125 35.992188 17.585938 C 36.007812 25.726562 35.992188 29.152344 35.9375 29.574219 Z M 29.074219 16.550781 C 28.984375 16.199219 28.734375 15.875 28.453125 15.742188 C 28.367188 15.699219 27.8125 15.652344 27.207031 15.625 C 26.210938 15.582031 26.101562 15.566406 25.777344 15.40625 C 25.28125 15.152344 25.144531 14.871094 25.136719 14.117188 C 25.136719 12.683594 24.453125 11.347656 23.101562 10.144531 C 22.136719 9.289062 21.070312 8.703125 19.839844 8.382812 C 19.550781 8.304688 18.890625 8.277344 16.691406 8.253906 C 13.242188 8.21875 12.472656 8.28125 11.296875 8.691406 C 9.128906 9.441406 7.578125 11.039062 7.007812 13.078125 C 6.902344 13.457031 6.878906 14.078125 6.855469 17.597656 C 6.824219 22.015625 6.855469 22.667969 7.175781 23.539062 C 7.957031 25.699219 10.15625 27.296875 12.367188 27.648438 C 13.105469 27.765625 22.1875 27.792969 23.109375 27.683594 C 24.726562 27.492188 25.996094 26.921875 27.183594 25.859375 C 28.042969 25.09375 28.582031 24.257812 28.9375 23.152344 C 29.195312 22.386719 29.167969 16.9375 29.074219 16.550781 Z M 29.074219 16.550781 "/>
</g>
</svg>
