<?xml version="1.0" encoding="UTF-8"?>
<svg xmlns="http://www.w3.org/2000/svg" xmlns:xlink="http://www.w3.org/1999/xlink" width="36px" height="36px" viewBox="0 0 36 36" version="1.1">
<g id="surface1">
<path style=" stroke:none;fill-rule:nonzero;fill:rgb(0%,0%,0%);fill-opacity:1;" d="M 35.4375 18 C 35.4375 8.367188 27.632812 0.5625 18 0.5625 C 8.367188 0.5625 0.5625 8.367188 0.5625 18 C 0.5625 26.703125 6.9375 33.917969 15.273438 35.226562 L 15.273438 23.039062 L 10.84375 23.039062 L 10.84375 18 L 15.273438 18 L 15.273438 14.15625 C 15.273438 9.789062 17.875 7.375 21.863281 7.375 C 23.769531 7.375 25.765625 7.714844 25.765625 7.714844 L 25.765625 12.003906 L 23.566406 12.003906 C 21.398438 12.003906 20.726562 13.347656 20.726562 14.726562 L 20.726562 18 L 25.5625 18 L 24.789062 23.039062 L 20.726562 23.039062 L 20.726562 35.226562 C 29.0625 33.917969 35.4375 26.703125 35.4375 18 Z M 35.4375 18 "/>
</g>
</svg>
