<?xml version="1.0" encoding="UTF-8"?>
<svg xmlns="http://www.w3.org/2000/svg" xmlns:xlink="http://www.w3.org/1999/xlink" width="36px" height="36px" viewBox="0 0 36 36" version="1.1">
<g id="surface1">
<path style=" stroke:none;fill-rule:nonzero;fill:rgb(0%,0%,0%);fill-opacity:1;" d="M 35.988281 17.964844 C 35.988281 19.230469 35.050781 20.222656 33.988281 20.222656 L 31.988281 20.222656 L 32.03125 31.484375 C 32.03125 31.675781 32.019531 31.867188 32 32.054688 L 32 33.1875 C 32 34.742188 30.882812 36 29.5 36 L 28.5 36 C 28.429688 36 28.363281 36 28.292969 35.992188 C 28.207031 36 28.117188 36 28.03125 36 L 24.5 36 C 23.117188 36 22 34.742188 22 33.1875 L 22 27 C 22 25.753906 21.105469 24.75 20 24.75 L 16 24.75 C 14.894531 24.75 14 25.753906 14 27 L 14 33.1875 C 14 34.742188 12.882812 36 11.5 36 L 8.007812 36 C 7.914062 36 7.820312 35.992188 7.726562 35.984375 C 7.648438 35.992188 7.574219 36 7.5 36 L 6.5 36 C 5.117188 36 4 34.742188 4 33.1875 L 4 25.3125 C 4 25.25 4 25.179688 4.007812 25.117188 L 4.007812 20.222656 L 2 20.222656 C 0.875 20.222656 0 19.238281 0 17.964844 C 0 17.332031 0.1875 16.769531 0.625 16.277344 L 16.648438 0.5625 C 17.085938 0.0703125 17.585938 0 18.023438 0 C 18.460938 0 18.960938 0.140625 19.335938 0.492188 L 35.300781 16.277344 C 35.800781 16.769531 36.050781 17.332031 35.988281 17.964844 Z M 35.988281 17.964844 "/>
</g>
</svg>
