<?xml version="1.0" encoding="utf-8"?>
<!-- Generator: Adobe Illustrator 23.0.1, SVG Export Plug-In . SVG Version: 6.00 Build 0)  -->
<svg version="1.1" id="Capa_1" xmlns="http://www.w3.org/2000/svg" xmlns:xlink="http://www.w3.org/1999/xlink" x="0px" y="0px"
	 viewBox="0 0 30 35" enable-background="new 0 0 30 35" xml:space="preserve">
<path fill="#FFFFFF" d="M6.6,12.5h16.7c0.4,0,0.6-0.3,0.6-0.7v-1.7c0-0.4-0.3-0.7-0.6-0.7H6.6C6.3,9.5,6,9.8,6,10.2v1.7
	C6,12.2,6.3,12.5,6.6,12.5z"/>
<path fill="#FFFFFF" d="M6.6,19h16.7c0.4,0,0.6-0.3,0.6-0.7v-1.7c0-0.4-0.3-0.7-0.6-0.7H6.6C6.3,16,6,16.3,6,16.7v1.7
	C6,18.7,6.3,19,6.6,19z"/>
<path fill="#FFFFFF" d="M6.6,25.5h16.7c0.4,0,0.6-0.3,0.6-0.7v-1.7c0-0.4-0.3-0.7-0.6-0.7H6.6c-0.4,0-0.6,0.3-0.6,0.7v1.7
	C6,25.2,6.3,25.5,6.6,25.5z"/>
</svg>
