<?xml version="1.0" encoding="UTF-8"?>
<svg xmlns="http://www.w3.org/2000/svg" xmlns:xlink="http://www.w3.org/1999/xlink" width="36px" height="px" viewBox="0 0 36 32" version="1.1">
<g id="surface1">
<path style=" stroke:none;fill-rule:nonzero;fill:rgb(0%,0%,0%);fill-opacity:1;" d="M 3 30 C 1.34375 30 0 28.65625 0 27 L 0 5 C 0 3.34375 1.34375 2 3 2 L 33 2 C 34.65625 2 36 3.34375 36 5 L 36 5.152344 L 31.28125 5.152344 L 30.21875 8.125 L 29.164062 5.152344 L 23.085938 5.152344 L 23.085938 9.101562 L 21.332031 5.152344 L 16.417969 5.152344 L 11.3125 16.695312 L 15.425781 16.695312 L 15.425781 26.929688 L 28.15625 26.929688 L 30.148438 24.738281 L 32.144531 26.929688 L 36 26.929688 L 36 27 C 36 28.65625 34.65625 30 33 30 Z M 30.164062 22.75 L 27.523438 25.644531 L 24.40625 25.644531 L 28.625 21.164062 L 24.40625 16.632812 L 27.617188 16.632812 L 30.210938 19.550781 L 32.835938 16.632812 L 36 16.632812 L 31.75 21.136719 L 36 25.644531 L 32.789062 25.644531 Z M 36 18.554688 L 36 23.761719 L 33.542969 21.144531 Z M 19.226562 23.570312 L 24.414062 23.570312 L 24.414062 25.644531 L 16.789062 25.644531 L 16.789062 16.695312 L 24.414062 16.695312 L 24.414062 18.761719 L 19.226562 18.761719 L 19.226562 20.164062 L 24.28125 20.164062 L 24.28125 22.179688 L 19.226562 22.179688 L 19.226562 23.574219 Z M 33.582031 9.105469 L 31.273438 15.394531 L 29.125 15.394531 L 26.824219 9.125 L 26.824219 15.394531 L 24.40625 15.394531 L 24.40625 6.4375 L 28.230469 6.4375 L 30.226562 12.019531 L 32.238281 6.4375 L 36 6.4375 L 36 15.394531 L 33.582031 15.394531 Z M 20.90625 13.601562 L 16.789062 13.601562 L 16.042969 15.394531 L 13.355469 15.394531 L 17.257812 6.4375 L 20.457031 6.4375 L 24.414062 15.394531 L 21.65625 15.394531 Z M 18.84375 8.65625 L 17.625 11.585938 L 20.054688 11.585938 Z M 18.84375 8.65625 "/>
</g>
</svg>
