<?xml version="1.0" encoding="UTF-8"?>
<svg xmlns="http://www.w3.org/2000/svg" xmlns:xlink="http://www.w3.org/1999/xlink" width="36px" height="px" viewBox="0 0 36 32" version="1.1">
<g id="surface1">
<path style=" stroke:none;fill-rule:nonzero;fill:rgb(0%,0%,0%);fill-opacity:1;" d="M 30.179688 25.644531 C 30.179688 26.070312 29.894531 26.375 29.480469 26.375 C 29.054688 26.375 28.78125 26.050781 28.78125 25.644531 C 28.78125 25.238281 29.054688 24.914062 29.480469 24.914062 C 29.894531 24.914062 30.179688 25.238281 30.179688 25.644531 Z M 10.757812 24.914062 C 10.3125 24.914062 10.054688 25.238281 10.054688 25.644531 C 10.054688 26.050781 10.3125 26.375 10.757812 26.375 C 11.164062 26.375 11.4375 26.070312 11.4375 25.644531 C 11.429688 25.238281 11.164062 24.914062 10.757812 24.914062 Z M 18.101562 24.894531 C 17.761719 24.894531 17.554688 25.113281 17.507812 25.4375 L 18.699219 25.4375 C 18.644531 25.082031 18.425781 24.894531 18.101562 24.894531 Z M 24.835938 24.914062 C 24.414062 24.914062 24.15625 25.238281 24.15625 25.644531 C 24.15625 26.050781 24.414062 26.375 24.835938 26.375 C 25.261719 26.375 25.539062 26.070312 25.539062 25.644531 C 25.539062 25.238281 25.261719 24.914062 24.835938 24.914062 Z M 31.457031 26.542969 C 31.457031 26.5625 31.476562 26.574219 31.476562 26.613281 C 31.476562 26.632812 31.457031 26.644531 31.457031 26.679688 C 31.4375 26.699219 31.4375 26.710938 31.425781 26.730469 C 31.40625 26.75 31.394531 26.761719 31.355469 26.761719 C 31.335938 26.78125 31.324219 26.78125 31.289062 26.78125 C 31.269531 26.78125 31.257812 26.78125 31.21875 26.761719 C 31.199219 26.761719 31.1875 26.742188 31.167969 26.730469 C 31.148438 26.710938 31.136719 26.699219 31.136719 26.679688 C 31.117188 26.648438 31.117188 26.632812 31.117188 26.613281 C 31.117188 26.582031 31.117188 26.5625 31.136719 26.542969 C 31.136719 26.511719 31.15625 26.492188 31.167969 26.476562 C 31.1875 26.457031 31.199219 26.457031 31.21875 26.445312 C 31.25 26.425781 31.269531 26.425781 31.289062 26.425781 C 31.320312 26.425781 31.335938 26.425781 31.355469 26.445312 C 31.386719 26.460938 31.40625 26.460938 31.425781 26.476562 C 31.445312 26.488281 31.4375 26.511719 31.457031 26.542969 Z M 31.320312 26.632812 C 31.351562 26.632812 31.351562 26.613281 31.367188 26.613281 C 31.386719 26.59375 31.386719 26.582031 31.386719 26.5625 C 31.386719 26.542969 31.386719 26.53125 31.367188 26.511719 C 31.351562 26.511719 31.335938 26.492188 31.300781 26.492188 L 31.199219 26.492188 L 31.199219 26.710938 L 31.25 26.710938 L 31.25 26.625 L 31.269531 26.625 L 31.335938 26.710938 L 31.386719 26.710938 Z M 36 5.0625 L 36 27.0625 C 36 28.71875 34.65625 30.0625 33 30.0625 L 3 30.0625 C 1.34375 30.0625 0 28.71875 0 27.0625 L 0 5.0625 C 0 3.40625 1.34375 2.0625 3 2.0625 L 33 2.0625 C 34.65625 2.0625 36 3.40625 36 5.0625 Z M 4 13.789062 C 4 18.570312 7.882812 22.445312 12.65625 22.445312 C 14.355469 22.445312 16.023438 21.929688 17.4375 21 C 12.882812 17.292969 12.914062 10.300781 17.4375 6.59375 C 16.023438 5.65625 14.355469 5.148438 12.65625 5.148438 C 7.882812 5.144531 4 9.023438 4 13.789062 Z M 18 20.585938 C 22.40625 17.148438 22.386719 10.449219 18 6.992188 C 13.613281 10.449219 13.59375 17.15625 18 20.585938 Z M 9.105469 25.355469 C 9.105469 24.8125 8.75 24.457031 8.1875 24.4375 C 7.898438 24.4375 7.59375 24.523438 7.386719 24.84375 C 7.238281 24.585938 6.980469 24.4375 6.625 24.4375 C 6.386719 24.4375 6.148438 24.523438 5.960938 24.773438 L 5.960938 24.5 L 5.449219 24.5 L 5.449219 26.792969 L 5.960938 26.792969 C 5.960938 25.613281 5.804688 24.90625 6.523438 24.90625 C 7.164062 24.90625 7.039062 25.542969 7.039062 26.792969 L 7.53125 26.792969 C 7.53125 25.648438 7.375 24.90625 8.09375 24.90625 C 8.730469 24.90625 8.605469 25.53125 8.605469 26.792969 L 9.117188 26.792969 L 9.117188 25.355469 Z M 11.914062 24.5 L 11.417969 24.5 L 11.417969 24.773438 C 11.25 24.570312 11.011719 24.4375 10.6875 24.4375 C 10.042969 24.4375 9.550781 24.949219 9.550781 25.644531 C 9.550781 26.34375 10.042969 26.851562 10.6875 26.851562 C 11.011719 26.851562 11.25 26.730469 11.417969 26.511719 L 11.417969 26.800781 L 11.914062 26.800781 Z M 14.445312 26.101562 C 14.445312 25.164062 13.011719 25.585938 13.011719 25.148438 C 13.011719 24.792969 13.757812 24.851562 14.167969 25.082031 L 14.375 24.675781 C 13.789062 24.292969 12.488281 24.300781 12.488281 25.1875 C 12.488281 26.082031 13.917969 25.707031 13.917969 26.125 C 13.917969 26.519531 13.074219 26.488281 12.625 26.175781 L 12.40625 26.570312 C 13.105469 27.042969 14.445312 26.945312 14.445312 26.101562 Z M 16.65625 26.679688 L 16.519531 26.257812 C 16.28125 26.386719 15.757812 26.53125 15.757812 26 L 15.757812 24.960938 L 16.574219 24.960938 L 16.574219 24.5 L 15.757812 24.5 L 15.757812 23.800781 L 15.242188 23.800781 L 15.242188 24.5 L 14.769531 24.5 L 14.769531 24.957031 L 15.242188 24.957031 L 15.242188 26 C 15.242188 27.101562 16.324219 26.898438 16.65625 26.679688 Z M 17.488281 25.84375 L 19.207031 25.84375 C 19.207031 24.832031 18.742188 24.429688 18.117188 24.429688 C 17.457031 24.429688 16.980469 24.925781 16.980469 25.636719 C 16.980469 26.917969 18.394531 27.132812 19.09375 26.523438 L 18.855469 26.148438 C 18.367188 26.550781 17.632812 26.511719 17.488281 25.84375 Z M 21.179688 24.5 C 20.894531 24.375 20.457031 24.386719 20.230469 24.773438 L 20.230469 24.5 L 19.71875 24.5 L 19.71875 26.792969 L 20.230469 26.792969 L 20.230469 25.5 C 20.230469 24.773438 20.824219 24.867188 21.03125 24.976562 Z M 21.84375 25.644531 C 21.84375 24.929688 22.570312 24.699219 23.136719 25.117188 L 23.375 24.710938 C 22.648438 24.144531 21.332031 24.457031 21.332031 25.648438 C 21.332031 26.886719 22.730469 27.136719 23.375 26.585938 L 23.136719 26.179688 C 22.5625 26.585938 21.84375 26.34375 21.84375 25.644531 Z M 26.011719 24.5 L 25.5 24.5 L 25.5 24.773438 C 24.980469 24.085938 23.632812 24.476562 23.632812 25.644531 C 23.632812 26.84375 25.03125 27.1875 25.5 26.511719 L 25.5 26.800781 L 26.011719 26.800781 Z M 28.117188 24.5 C 27.96875 24.425781 27.429688 24.320312 27.167969 24.773438 L 27.167969 24.5 L 26.675781 24.5 L 26.675781 26.792969 L 27.167969 26.792969 L 27.167969 25.5 C 27.167969 24.8125 27.730469 24.855469 27.96875 24.976562 Z M 30.636719 23.570312 L 30.144531 23.570312 L 30.144531 24.773438 C 29.632812 24.09375 28.273438 24.457031 28.273438 25.644531 C 28.273438 26.855469 29.679688 27.179688 30.144531 26.511719 L 30.144531 26.800781 L 30.636719 26.800781 Z M 31.113281 18.875 L 31.113281 19.164062 L 31.164062 19.164062 L 31.164062 18.875 L 31.28125 18.875 L 31.28125 18.824219 L 30.992188 18.824219 L 30.992188 18.875 Z M 31.523438 26.613281 C 31.523438 26.582031 31.523438 26.542969 31.507812 26.511719 C 31.488281 26.492188 31.476562 26.460938 31.457031 26.445312 C 31.4375 26.425781 31.40625 26.414062 31.386719 26.394531 C 31.355469 26.394531 31.320312 26.375 31.289062 26.375 C 31.269531 26.375 31.238281 26.394531 31.199219 26.394531 C 31.167969 26.414062 31.148438 26.425781 31.132812 26.445312 C 31.101562 26.460938 31.082031 26.492188 31.082031 26.511719 C 31.0625 26.542969 31.0625 26.582031 31.0625 26.613281 C 31.0625 26.632812 31.0625 26.664062 31.082031 26.699219 C 31.082031 26.71875 31.101562 26.75 31.132812 26.769531 C 31.148438 26.789062 31.164062 26.800781 31.199219 26.820312 C 31.230469 26.835938 31.269531 26.835938 31.289062 26.835938 C 31.320312 26.835938 31.355469 26.835938 31.386719 26.820312 C 31.40625 26.800781 31.4375 26.789062 31.457031 26.769531 C 31.476562 26.75 31.488281 26.71875 31.507812 26.699219 C 31.523438 26.664062 31.523438 26.632812 31.523438 26.613281 Z M 31.726562 18.820312 L 31.636719 18.820312 L 31.539062 19.039062 L 31.4375 18.820312 L 31.351562 18.820312 L 31.351562 19.15625 L 31.398438 19.15625 L 31.398438 18.898438 L 31.5 19.117188 L 31.570312 19.117188 L 31.65625 18.898438 L 31.65625 19.15625 L 31.726562 19.15625 Z M 32 13.789062 C 32 9.023438 28.117188 5.144531 23.34375 5.144531 C 21.644531 5.144531 19.976562 5.65625 18.5625 6.585938 C 23.070312 10.292969 23.136719 17.304688 18.5625 20.992188 C 19.976562 21.929688 21.65625 22.4375 23.34375 22.4375 C 28.117188 22.445312 32 18.570312 32 13.789062 Z M 32 13.789062 "/>
</g>
</svg>
